<svg viewBox="0 0 184.58 40.03">
<defs>
<linearGradient id="dt-lg-light" x1="80.72" y1="79.44" x2="80.72" y2="9.45" gradientUnits="userSpaceOnUse">
<stop offset="0" stop-color="#343444"></stop>
<stop offset="0.5" stop-color="#373d48"></stop>
<stop offset="1" stop-color="#3a486c"></stop>
</linearGradient>
<linearGradient id="dt-lg-light-2" x1="125.66" y1="79.44" x2="125.66" y2="9.45" xlink:href="#dt-lg-light"></linearGradient>
<linearGradient id="dt-lg-light-3" x1="128.55" y1="79.44" x2="128.55" y2="9.45" xlink:href="#dt-lg-light"></linearGradient>
<linearGradient id="dt-lg-light-4" x1="166.3" y1="79.44" x2="166.3" y2="9.45" xlink:href="#dt-lg-light"></linearGradient>
<linearGradient id="dt-lg-light-5" x1="30.43" y1="79.44" x2="30.43" y2="9.45" xlink:href="#dt-lg-light"></linearGradient>
<linearGradient id="dt-lg-light-6" x1="35.6" y1="79.44" x2="35.6" y2="9.45" xlink:href="#dt-lg-light"></linearGradient>
<linearGradient id="dt-lg-light-7" x1="93.99" y1="79.44" x2="93.99" y2="9.45" xlink:href="#dt-lg-light"></linearGradient>
<linearGradient id="dt-lg-light-8" x1="59.77" y1="79.44" x2="59.77" y2="9.45" xlink:href="#dt-lg-light"></linearGradient>
<linearGradient id="dt-lg-light-9" x1="160.69" y1="79.44" x2="160.69" y2="9.45" xlink:href="#dt-lg-light"></linearGradient>
<linearGradient id="dt-lg-light-10" x1="11.37" y1="79.44" x2="11.37" y2="9.45" xlink:href="#dt-lg-light"></linearGradient>
<linearGradient id="dt-lg-light-11" x1="11.9" y1="79.44" x2="11.9" y2="9.45" xlink:href="#dt-lg-light"></linearGradient>
<linearGradient id="dt-lg-light-12" x1="78.53" y1="79.44" x2="78.53" y2="9.45" xlink:href="#dt-lg-light"></linearGradient>
<linearGradient id="dt-lg-dark" x1="80.72" y1="79.44" x2="80.72" y2="9.45" gradientUnits="userSpaceOnUse">
<stop offset="0" stop-color="#5f7ebe"></stop>
<stop offset="0.65" stop-color="#bce0da"></stop>
<stop offset="1" stop-color="#fff"></stop>
</linearGradient>
<linearGradient id="dt-lg-dark-2" x1="125.66" y1="79.44" x2="125.66" y2="9.45" xlink:href="#dt-lg-dark"></linearGradient>
<linearGradient id="dt-lg-dark-3" x1="128.55" y1="79.44" x2="128.55" y2="9.45" xlink:href="#dt-lg-dark"></linearGradient>
<linearGradient id="dt-lg-dark-4" x1="166.3" y1="79.44" x2="166.3" y2="9.45" xlink:href="#dt-lg-dark"></linearGradient>
<linearGradient id="dt-lg-dark-5" x1="30.43" y1="79.44" x2="30.43" y2="9.45" xlink:href="#dt-lg-dark"></linearGradient>
<linearGradient id="dt-lg-dark-6" x1="35.6" y1="79.44" x2="35.6" y2="9.45" xlink:href="#dt-lg-dark"></linearGradient>
<linearGradient id="dt-lg-dark-7" x1="93.99" y1="79.44" x2="93.99" y2="9.45" xlink:href="#dt-lg-dark"></linearGradient>
<linearGradient id="dt-lg-dark-8" x1="59.77" y1="79.44" x2="59.77" y2="9.45" xlink:href="#dt-lg-dark"></linearGradient>
<linearGradient id="dt-lg-dark-9" x1="160.69" y1="79.44" x2="160.69" y2="9.45" xlink:href="#dt-lg-dark"></linearGradient>
<linearGradient id="dt-lg-dark-10" x1="11.37" y1="79.44" x2="11.37" y2="9.45" xlink:href="#dt-lg-dark"></linearGradient>
<linearGradient id="dt-lg-dark-11" x1="11.9" y1="79.44" x2="11.9" y2="9.45" xlink:href="#dt-lg-dark"></linearGradient>
<linearGradient id="dt-lg-dark-12" x1="78.53" y1="79.44" x2="78.53" y2="9.45" xlink:href="#dt-lg-dark"></linearGradient>
</defs>
<g>
<path class="dt-cls-1" d="M106.47,0c-1.08,6.1-2.14,12.09-3.2,18.11H55c-.09-.55,2.74-17,3.12-18.11H59c4.37,0,8.74,0,13.11,0A1.23,1.23,0,0,1,73.4.83C75.35,5,77.35,9.11,79.33,13.25l.42.83c.22-.24.4-.42.57-.62C83.75,9.35,87.19,5.25,90.58,1.1A2.65,2.65,0,0,1,92.93,0c4.2.06,8.39,0,12.59,0Z"></path>
<path class="dt-cls-2" d="M104.41,40c1.15-6.55,2.28-12.93,3.42-19.4h34.53a2.42,2.42,0,0,1,1.45.45A6.68,6.68,0,0,1,146.92,27,11.38,11.38,0,0,1,142,36.34a18.49,18.49,0,0,1-7.17,3,29.15,29.15,0,0,1-6.25.64H104.41Z"></path>
<path class="dt-cls-3" d="M108.26,18.19c1.08-6.11,2.13-12.1,3.2-18.13l.77,0h23.84a20.73,20.73,0,0,1,6.5.87,13.68,13.68,0,0,1,2.82,1.25,7,7,0,0,1,3.33,7.55c-.66,4-3.06,6.63-6.61,8.33a2.39,2.39,0,0,1-1,.15H108.26Z"></path>
<path class="dt-cls-4" d="M151.41,20.66h14.31c-.39,2.67-.94,5.26-1.36,8h20.22c-.64,3.85-1.32,7.58-2,11.34H148C149.12,33.53,150.28,27.14,151.41,20.66Z"></path>
<path class="dt-cls-5" d="M46,40H11.49c.14-.83.26-1.6.44-2.36a1.16,1.16,0,0,1,.47-.52l17-12L35.11,21a1.6,1.6,0,0,1,1-.36h12.6c.19,0,.38,0,.65.05Z"></path>
<path class="dt-cls-6" d="M18.54,0H53c-1,6.07-2.12,12.08-3.2,18.16H49c-4.59,0-9.18,0-13.77,0a1.46,1.46,0,0,1-1.11-.45q-7.8-7.63-15.62-15.26a.82.82,0,0,1-.29-.9C18.38,1.1,18.44.58,18.54,0Z"></path>
<path class="dt-cls-7" d="M102.82,20.67,99.44,39.88c-.58.18-13.41.21-14.28,0,1.12-6.4,2.25-12.8,3.39-19.25Z"></path>
<path class="dt-cls-8" d="M68.41,20.66,65,40H51.12c-.07-.58,3-18.44,3.35-19.32Z"></path>
<path class="dt-cls-9" d="M166.19,18.15H152c-.08-.56,2.75-17,3.11-18.09h14.26Z"></path>
<path class="dt-cls-10" d="M0,20.66H22.74c-.06.29-.09.55-.16.79a14.12,14.12,0,0,1-5.91,7.71,12.58,12.58,0,0,1-7.61,2.2A9,9,0,0,1,.17,23.91,13.08,13.08,0,0,1,0,22.15C0,21.68,0,21.22,0,20.66Z"></path>
<path class="dt-cls-11" d="M23,18.17H.68a5.47,5.47,0,0,1,.18-.63C3.14,12.42,7,9.29,12.6,8.67a9.16,9.16,0,0,1,8.55,3.44,9.3,9.3,0,0,1,2,5.71.85.85,0,0,1,0,.22S23.06,18.08,23,18.17Z"></path>
<path class="dt-cls-12" d="M88.15,20.67c-4.06,4.66-8,9.23-12,13.79-.46-.48-7-12.94-7.23-13.79Z"></path>
</g>
</svg>